<svg width="580" height="400" xmlns="http://www.w3.org/2000/svg">
 <!-- Created with Method Draw - http://github.com/duopixel/Method-Draw/ -->
 <g>
  <title>background</title>
  <rect fill="#fff" id="canvas_background" height="402" width="582" y="-1" x="-1"/>
  <g display="none" overflow="visible" y="0" x="0" height="100%" width="100%" id="canvasGrid">
   <rect fill="url(#gridpattern)" stroke-width="0" y="0" x="0" height="100%" width="100%"/>
  </g>
 </g>
 <g>
  <title>Layer 1</title>
  <path d="m57.5,25c3,6 7.263664,11.83659 14,23c4.16539,6.902863 7.723991,12.222729 11,16c1.853188,2.136749 5,4 6,4l1,0" id="svg_1" stroke-width="1.5" stroke="#000" fill="none"/>
  <path d="m141.5,43c-1,0 -4.493484,2.742687 -13,8c-9.510567,5.877853 -20,11 -24,14l-3,1l-1,1" id="svg_2" stroke-width="1.5" stroke="#000" fill="none"/>
  <path d="m55.5,90c9,0 24.966339,3.209465 43,6c13.9758,2.162621 21,2 27,2c3,0 6,0 8,0c3,0 6,0 8,-1l1,-1" id="svg_3" stroke-width="1.5" stroke="#000" fill="none"/>
  <path d="m64.5,143c2,-1 8.105087,-1.467926 18,1c10.129982,2.52655 22.962601,5.499374 33,6c7.990067,0.398514 17,0 21,0l1,-1l3,0l0,-1" id="svg_4" stroke-width="1.5" stroke="#000" fill="none"/>
  <path d="m23.5,187c15,2 35.955254,7.242523 57,11c17.964195,3.207458 35,7 45,7c16,0 25,-5 37,-12c12,-7 21,-13 24,-16c3,-3 3,-4 3,-8l-2,-4l-2,-5l-1,-2" id="svg_5" stroke-width="1.5" stroke="#000" fill="none"/>
  <path d="m102.5,103c0,9 3.496552,25.847351 5,48c1.489662,21.949509 0,42 0,59c0,20 0,30 0,38c0,7 0,13 0,17c0,4 0,9 0,14c0,5 0,11 0,16c0,2 0,3 0,4l0,1" id="svg_6" stroke-width="1.5" stroke="#000" fill="none"/>
  <path d="m229.5,48c2,0 10,5 20,12l8,6l7,4l2,2" id="svg_7" stroke-width="1.5" stroke="#000" fill="none"/>
  <path d="m317.5,51c-2,2 -3.551697,4.534763 -13,12c-19.155457,15.13501 -32,21 -39,25l-1,1l-1,0" id="svg_8" stroke-width="1.5" stroke="#000" fill="none"/>
  <path d="m233.5,114c3,0 14.218384,1.192284 23,4c26.890198,8.597511 42.892151,17.312881 57,22c12.907745,4.288391 22,7 27,7l1,0" id="svg_9" stroke-width="1.5" stroke="#000" fill="none"/>
  <path d="m264.5,175c-1,0 -1,1 4,3l30,10l34,6l1,0" id="svg_10" stroke-width="1.5" stroke="#000" fill="none"/>
  <path d="m221.5,221c5,2 15.96254,5.180466 30,8c15.960052,3.205704 34.151245,5.123596 54,9c29.279724,5.718246 42,8 49,8c3,0 4,0 5,0l-1,-1l-2,-5l-2,-3" id="svg_11" stroke-width="1.5" stroke="#000" fill="none"/>
  <path d="m292.5,148c-1,2 -1,13 -1,37c0,27 0,54 0,81c0,25 0,44 0,59c0,11 0,16 0,23l0,3l0,1l0,1" id="svg_12" stroke-width="1.5" stroke="#000" fill="none"/>
  <path d="m401.5,107c3,0 7.809967,0.645546 17,3c10.830536,2.77475 24,4 39,4c15,0 25,0 34,0l8,0l2,0l1,0" id="svg_13" stroke-width="1.5" stroke="#000" fill="none"/>
  <path d="m447.5,52c0,2 -1.443268,9.114483 -5,25c-5.19342,23.195442 -11.679535,55.061752 -18,87c-4.759186,24.04892 -8,37 -8,44c0,7 1.584686,14.545364 8,19c6.622314,4.598373 18.946716,7.498734 26,8c8.977356,0.638 17.25058,1.108368 24,-1c4.268707,-1.33345 8,-4 11,-6l2,-2l0,-1l0,-1" id="svg_14" stroke-width="1.5" stroke="#000" fill="none"/>
  <path d="m384.5,270c4,6 14.204315,14.590027 29,21c12.48056,5.406982 26.973236,7.499695 41,8c15.989838,0.570343 30.313751,-1.159393 42,-6c8.263428,-3.422821 10.917603,-4.386871 12,-7c0.38269,-0.923889 0,-2 0,-4l0,-3l-2,-3l0,-5" id="svg_15" stroke-width="1.5" stroke="#000" fill="none"/>
  <path d="m449.5,191c0,0 0,3 0,7c0,3 0,17 0,25c0,9 0,19 0,30c0,12 0,25 0,34c0,8 0.331787,13.009186 0,19c-0.500763,9.041534 -1.533752,14.096619 -3,20c-1.524536,6.138062 -2.633453,10.022491 -3,13c-0.503784,4.092224 -1,5 -1,9c0,2 0,6 0,7c0,1 0,2 0,3c0,1 0,2 0,3c0,2 0.693451,3.458801 2,4c0.923889,0.38269 1.384583,0.211792 2,1c2.537415,3.249847 6.823761,3.486267 9,4c0.973236,0.229767 2,0 3,0c1,0 5.504333,0.406006 10,-2c3.740631,-2.001923 5.292908,-2.292908 6,-3c0.707092,-0.707092 3.292908,-2.292908 4,-3c0.707092,-0.707092 1,-1 1,-2c0,-1 -0.746735,-4.371338 -5,-7c-1.9021,-1.175568 -3.026764,-0.770233 -4,-1c-2.176239,-0.513733 -3.878571,-1.493469 -7,-2c-1.974182,-0.320374 -3.693451,-0.458801 -5,-1c-0.923889,-0.38269 -2.459503,0.053497 -2,2c0.513733,2.176239 2,4 5,7c2,2 6,6 8,7c2,1 3,1 5,1c2,0 3,0 4,0c2,0 4.038727,0.48056 7,0c3.121429,-0.506531 5,-1 6,-1c1,0 1.0979,-0.824432 3,-2c1.701294,-1.051453 4.076111,-1.61731 5,-2c2.613129,-1.082397 4.186005,-2.692535 6,-4c1.147278,-0.826904 1.337494,-3.309998 3,-6c0.7435,-1.203003 2,-3 3,-4l0,-1l1,-2" id="svg_16" stroke-width="1.5" stroke="#000" fill="none"/>
 </g>
</svg>